<svg width="120" height="120" viewBox="0 0 120 120" fill="none" xmlns="http://www.w3.org/2000/svg">
  <defs>
    <linearGradient id="buildingGradient" x1="0%" y1="0%" x2="100%" y2="100%">
      <stop offset="0%" style="stop-color:#6b5b4f"/>
      <stop offset="100%" style="stop-color:#3c2e26"/>
    </linearGradient>
    <linearGradient id="accentGradient" x1="0%" y1="0%" x2="100%" y2="100%">
      <stop offset="0%" style="stop-color:#c4a484"/>
      <stop offset="100%" style="stop-color:#9d8672"/>
    </linearGradient>
    <filter id="shadow" x="-20%" y="-20%" width="140%" height="140%">
      <feDropShadow dx="2" dy="4" stdDeviation="3" flood-opacity="0.3"/>
    </filter>
  </defs>
  
  <!-- 배경 원 -->
  <circle cx="60" cy="60" r="58" fill="#faf9f7" stroke="url(#accentGradient)" stroke-width="2" filter="url(#shadow)"/>
  
  <!-- 메인 빌딩 -->
  <rect x="35" y="25" width="50" height="70" rx="3" fill="url(#buildingGradient)" filter="url(#shadow)"/>
  
  <!-- 왼쪽 빌딩 -->
  <rect x="15" y="35" width="25" height="60" rx="2" fill="url(#buildingGradient)" opacity="0.8"/>
  
  <!-- 오른쪽 빌딩 -->
  <rect x="80" y="40" width="20" height="55" rx="2" fill="url(#buildingGradient)" opacity="0.7"/>
  
  <!-- 메인 빌딩 창문들 -->
  <rect x="40" y="32" width="6" height="8" rx="1" fill="#e8dcc6"/>
  <rect x="50" y="32" width="6" height="8" rx="1" fill="#e8dcc6"/>
  <rect x="60" y="32" width="6" height="8" rx="1" fill="#e8dcc6"/>
  <rect x="70" y="32" width="6" height="8" rx="1" fill="#e8dcc6"/>
  
  <rect x="40" y="45" width="6" height="8" rx="1" fill="#e8dcc6"/>
  <rect x="50" y="45" width="6" height="8" rx="1" fill="#e8dcc6"/>
  <rect x="60" y="45" width="6" height="8" rx="1" fill="#e8dcc6"/>
  <rect x="70" y="45" width="6" height="8" rx="1" fill="#e8dcc6"/>
  
  <rect x="40" y="58" width="6" height="8" rx="1" fill="#e8dcc6"/>
  <rect x="50" y="58" width="6" height="8" rx="1" fill="#e8dcc6"/>
  <rect x="60" y="58" width="6" height="8" rx="1" fill="#e8dcc6"/>
  <rect x="70" y="58" width="6" height="8" rx="1" fill="#e8dcc6"/>
  
  <rect x="40" y="71" width="6" height="8" rx="1" fill="#e8dcc6"/>
  <rect x="50" y="71" width="6" height="8" rx="1" fill="#e8dcc6"/>
  <rect x="60" y="71" width="6" height="8" rx="1" fill="#e8dcc6"/>
  <rect x="70" y="71" width="6" height="8" rx="1" fill="#e8dcc6"/>
  
  <!-- 왼쪽 빌딩 창문들 -->
  <rect x="20" y="42" width="4" height="6" rx="1" fill="#e8dcc6"/>
  <rect x="28" y="42" width="4" height="6" rx="1" fill="#e8dcc6"/>
  <rect x="20" y="52" width="4" height="6" rx="1" fill="#e8dcc6"/>
  <rect x="28" y="52" width="4" height="6" rx="1" fill="#e8dcc6"/>
  <rect x="20" y="62" width="4" height="6" rx="1" fill="#e8dcc6"/>
  <rect x="28" y="62" width="4" height="6" rx="1" fill="#e8dcc6"/>
  <rect x="20" y="72" width="4" height="6" rx="1" fill="#e8dcc6"/>
  <rect x="28" y="72" width="4" height="6" rx="1" fill="#e8dcc6"/>
  <rect x="20" y="82" width="4" height="6" rx="1" fill="#e8dcc6"/>
  <rect x="28" y="82" width="4" height="6" rx="1" fill="#e8dcc6"/>
  
  <!-- 오른쪽 빌딩 창문들 -->
  <rect x="85" y="47" width="4" height="6" rx="1" fill="#e8dcc6"/>
  <rect x="91" y="47" width="4" height="6" rx="1" fill="#e8dcc6"/>
  <rect x="85" y="57" width="4" height="6" rx="1" fill="#e8dcc6"/>
  <rect x="91" y="57" width="4" height="6" rx="1" fill="#e8dcc6"/>
  <rect x="85" y="67" width="4" height="6" rx="1" fill="#e8dcc6"/>
  <rect x="91" y="67" width="4" height="6" rx="1" fill="#e8dcc6"/>
  <rect x="85" y="77" width="4" height="6" rx="1" fill="#e8dcc6"/>
  <rect x="91" y="77" width="4" height="6" rx="1" fill="#e8dcc6"/>
  
  <!-- 메인 빌딩 입구 -->
  <rect x="52" y="84" width="16" height="11" rx="2" fill="url(#accentGradient)"/>
  <circle cx="60" cy="89" r="1.5" fill="#3c2e26"/>
  
  <!-- 왼쪽 빌딩 입구 -->
  <rect x="22" y="89" width="8" height="6" rx="1" fill="url(#accentGradient)"/>
  
  <!-- 오른쪽 빌딩 입구 -->
  <rect x="87" y="89" width="6" height="6" rx="1" fill="url(#accentGradient)"/>
  
  <!-- 장식적인 요소들 -->
  <rect x="35" y="22" width="50" height="3" rx="1.5" fill="url(#accentGradient)"/>
  <rect x="15" y="32" width="25" height="2" rx="1" fill="url(#accentGradient)" opacity="0.8"/>
  <rect x="80" y="37" width="20" height="2" rx="1" fill="url(#accentGradient)" opacity="0.7"/>
</svg>